<?xml version="1.0" encoding="UTF-8"?>
<svg id="Layer_1" data-name="Layer 1" xmlns="https://www.w3.org/2000/svg" viewBox="0 0 287.793438708376925 287.793438708376925">
  <defs>
    <style>
      .cls-1 {
        fill: none;
        stroke: #096;
        stroke-linecap: round;
        stroke-linejoin: round;
        stroke-width: 20px;
      }
    </style>
  </defs>
  <path class="cls-1" d="m274.81398340857595,142.406994735112676c0-73.095970021543508-59.311018651853374-132.406994735112676-132.406988673397791-132.406994735112676C69.311024713569168,10,10,69.311024713569168,10,142.406994735112676c0,73.095970021609901,59.311024713569168,132.406988673463275,132.406994735178159,132.406988673463275"/>
  <path class="cls-1" d="m89.452147389538368,23.228782743381998h13.228776681728959c-25.821945931590562,77.346664432013313-25.821945931590562,161.00975955145168,0,238.356423983464083h-13.228776681728959"/>
  <path class="cls-1" d="m182.133065399088082,23.228782743381998c12.831515975054572,38.653467968360928,19.34660126268318,78.935707258581715,19.34660126268318,119.178211991730677"/>
  <path class="cls-1" d="m23.228782743446573,195.361842080752467v-13.22877668172805c38.653467968296354,12.831515975054572,78.935707258517141,19.34660126268318,119.178211991731587,19.34660126268318"/>
  <path class="cls-1" d="m23.228782743446573,102.680924071202753c77.346664432013313-25.821945931525988,161.00975955145077-25.821945931525988,238.356423983432251,0"/>
  <path class="cls-1" d="m220.985157659008109,268.815356437051378c26.417836991471631,0,47.83019877807601-21.412361786569818,47.83019877807601-47.830198778108752,0-26.41783699147345-21.412361786604379-47.83018665461168-47.83019877807601-47.83018665461168-26.417836991540753,0-47.830186654677163,21.41234966313823-47.830186654677163,47.83018665461168,0,26.417836991538934,21.412349663136411,47.830198778108752,47.830186654677163,47.830198778108752Z"/>
  <path class="cls-1" d="m277.793438708376925,277.793438708376925l-14.936992870896574-14.936992870894755"/>
</svg>