<?xml version="1.0" encoding="utf-8"?>
<!-- Generator: Adobe Illustrator 27.2.0, SVG Export Plug-In . SVG Version: 6.00 Build 0)  -->
<svg version="1.1" id="Layer_1" xmlns="//www.w3.org/2000/svg" xmlns:xlink="//www.w3.org/1999/xlink" x="0px" y="0px"
	 viewBox="0 0 140 140" style="enable-background:new 0 0 140 140;" xml:space="preserve">
<style type="text/css">
	.st0{fill:none;stroke:#009966;stroke-width:10;stroke-linecap:round;stroke-linejoin:round;stroke-miterlimit:133.3333;}
</style>
<path class="st0" d="M129.3,69.3c0-33.1-26.9-60-60-60s-60,26.9-60,60s26.9,60,60,60"/>
<path class="st0" d="M45.3,15.4h6c-11.7,35-11.7,72.9,0,107.9h-6"/>
<path class="st0" d="M87.3,15.4c5.8,17.5,8.8,35.7,8.8,54"/>
<path class="st0" d="M15.4,93.3v-6c17.5,5.8,35.7,8.8,54,8.8"/>
<path class="st0" d="M15.4,51.3c35-11.7,72.9-11.7,107.9,0"/>
<path class="st0" d="M104.9,126.6c12,0,21.7-9.7,21.7-21.7s-9.7-21.7-21.7-21.7s-21.7,9.7-21.7,21.7S92.9,126.6,104.9,126.6z"/>
<path class="st0" d="M130.6,130.6l-6.8-6.8"/>
</svg>
