<?xml version="1.0" encoding="UTF-8"?>
<svg id="Layer_1" data-name="Layer 1" xmlns="https://www.w3.org/2000/svg" viewBox="0 0 3822.221524470583972 3822.221524470586701">
  <defs>
    <style>
      .cls-1 {
        fill: none;
        stroke: #096;
        stroke-linecap: round;
        stroke-linejoin: round;
        stroke-width: 280px;
      }
    </style>
  </defs>
  <path class="cls-1" d="m3642.810959577627727,1891.405519879312124c0-966.872525373934877-784.532914324379817-1751.405519879312124-1751.405439698315604-1751.405519879312124S140,924.532994505377246,140,1891.405519879312124s784.532994505376337,1751.405439698314694,1751.405519879312124,1751.405439698314694"/>
  <path class="cls-1" d="m1190.948477326581269,314.982924160939547h174.982843979940299c-341.558229072315044,1023.098328766023769-341.558229072315044,2129.746862670723203,0,3152.845191436746973h-174.982843979940299"/>
  <path class="cls-1" d="m2416.879718452102679,314.982924160939547c169.72810199421474,511.286411247525393,255.905998849748357,1044.1172967089351,255.905998849748357,1576.422595718372577"/>
  <path class="cls-1" d="m314.982924160938637,2591.862562432043887v-174.982843979940299c511.286411247525393,169.728101994212921,1044.1172967089351,255.905998849750176,1576.422595718373486,255.905998849750176"/>
  <path class="cls-1" d="m314.982924160938637,1365.931321306521568c1023.098328766023769-341.558229072314134,2129.746862670723203-341.558229072314134,3152.845191436746973,0"/>
  <path class="cls-1" d="m2930.793420511494332,3563.464483882734385c349.440342050906111,0,632.671063371239143-283.230721320334851,632.671063371239143-632.671063371239143,0-349.44034205090793-283.230721320333032-632.670903009240646-632.671063371239143-632.670903009240646-349.44034205090793,0-632.670903009240646,283.230560958332717-632.670903009240646,632.670903009240646,0,349.440342050904292,283.230560958332717,632.671063371239143,632.670903009240646,632.671063371239143Z"/>
  <path class="cls-1" d="m3682.221524470583972,3682.221524470586701l-197.578170373768444-197.578170373772082"/>
</svg>