<?xml version="1.0" encoding="UTF-8"?>
<svg id="Layer_1" data-name="Layer 1" xmlns="https://www.w3.org/2000/svg" viewBox="0 0 724.095213561284254 724.095213561284254">
  <defs>
    <style>
      .cls-1 {
        fill: none;
        stroke: #ccc;
        stroke-linecap: round;
        stroke-linejoin: round;
        stroke-width: 49.999998092651367px;
      }
    </style>
  </defs>
  <path class="cls-1" d="m691.666640281677246,358.333319664001465c0-183.999992345174178-149.33331237793027-333.333320617675781-333.333320617675781-333.333320617675781C174.333327318827287,24.999999046325684,24.999999046325684,174.333327318827287,24.999999046325684,358.333319664001465c0,184.000008239745512,149.333328272501603,333.333320617675781,333.333320617675781,333.333320617675781"/>
  <path class="cls-1" d="m224.999323844935134,58.333331108093262h33.333332061767578c-64.999991162618244,194.666664326985483-64.999991162618244,405.333312784830923,0,599.999977111816406h-33.333332061767578"/>
  <path class="cls-1" d="m458.333315849304199,58.333331108093262c32.333341000874498,97.333332163492742,48.666634292603703,198.666660359700472,48.666634292603703,299.999988555908203"/>
  <path class="cls-1" d="m58.333331108093262,491.666647911071777v-33.333332061767578c97.333332163492742,32.333341000874498,198.666660359700472,48.666634292603703,299.999988555908203,48.666634292603703"/>
  <path class="cls-1" d="m58.333331108093262,258.336661338678823c194.666664326985483-65.000007057189578,405.333312784830923-65.000007057189578,599.999977111816406,0"/>
  <path class="cls-1" d="m556.142857362656287,676.523770819163474c66.484132048803076,0,120.380913456507187-53.896781407704111,120.380913456507187-120.380913456507187,0-66.484203801443073-53.896781407704111-120.380985209147184-120.380913456507187-120.380985209147184-66.484203801443073,0-120.380985209147184,53.896781407704111-120.380985209147184,120.380985209147184,0,66.484132048803076,53.896781407704111,120.380913456507187,120.380985209147184,120.380913456507187Z"/>
  <path class="cls-1" d="m699.09521451495857,699.09521451495857l-37.619048908778495-37.619048908778495"/>
</svg>